<svg xmlns="http://www.w3.org/2000/svg" viewBox="0 0 229.03 61.03"><defs><style>.cls-1{fill:#222123;}</style></defs><title>Asset 15</title><g id="Layer_2" data-name="Layer 2"><g id="Layer_1-2" data-name="Layer 1"><path class="cls-1" d="M72.28,45.74V41.21c0-2.58,1.84-4.29,4.61-4.29s4.58,1.65,4.58,4.13c0,.13-.09.2-.28.22l-1.55.09c-.19,0-.3,0-.3-.09v-.11a2.47,2.47,0,0,0-4.93,0v4.67a2.47,2.47,0,0,0,4.93,0c0-.13.11-.22.3-.2l1.53.07c.19,0,.3,0,.3.09v.1c0,2.51-1.83,4.16-4.58,4.16S72.28,48.32,72.28,45.74Z"/><path class="cls-1" d="M98.22,49.66l-.57-1.89a.11.11,0,0,0-.12-.09H92.72a.11.11,0,0,0-.12.09L92,49.66a.32.32,0,0,1-.33.24H90c-.2,0-.29-.13-.24-.33l3.92-12.26a.32.32,0,0,1,.33-.24h2.15a.32.32,0,0,1,.33.24l3.94,12.26c.05.2,0,.33-.24.33H98.55A.32.32,0,0,1,98.22,49.66Zm-5-3.65H97c.08,0,.11,0,.1-.12L95.2,39.65c0-.09-.11-.09-.15,0l-1.89,6.24C93.15,46,93.18,46,93.26,46Z"/><path class="cls-1" d="M116.59,37.36v1.27a.27.27,0,0,1-.29.29H113a.1.1,0,0,0-.11.11V49.61a.27.27,0,0,1-.3.29h-1.54a.27.27,0,0,1-.29-.29V39a.11.11,0,0,0-.11-.11h-3.15a.27.27,0,0,1-.3-.29V37.36a.27.27,0,0,1,.3-.29h8.78A.27.27,0,0,1,116.59,37.36Z"/><path class="cls-1" d="M132.1,49.66l-.57-1.89a.12.12,0,0,0-.13-.09h-4.8a.13.13,0,0,0-.13.09l-.57,1.89a.31.31,0,0,1-.33.24h-1.66c-.21,0-.3-.13-.24-.33l3.92-12.26a.31.31,0,0,1,.33-.24h2.14a.31.31,0,0,1,.33.24l4,12.26c0,.2,0,.33-.24.33h-1.67A.31.31,0,0,1,132.1,49.66Zm-5-3.65h3.74c.07,0,.11,0,.09-.12l-1.89-6.24c0-.09-.11-.09-.14,0L127,45.89C127,46,127.06,46,127.13,46Z"/><path class="cls-1" d="M143.24,49.61V37.36a.27.27,0,0,1,.3-.29h1.56a.41.41,0,0,1,.36.2l2.86,4.62a.08.08,0,0,0,.15,0l2.89-4.62a.43.43,0,0,1,.37-.2h1.54a.27.27,0,0,1,.29.29V49.61a.27.27,0,0,1-.29.29h-1.54a.27.27,0,0,1-.29-.29V40.94c0-.11-.08-.13-.13,0l-2.18,3.57a.44.44,0,0,1-.37.21h-.71a.42.42,0,0,1-.37-.21L145.5,40.9c-.06-.09-.13-.07-.13,0v8.67a.27.27,0,0,1-.29.29h-1.54A.27.27,0,0,1,143.24,49.61Z"/><path class="cls-1" d="M170.91,49.66l-.57-1.89a.13.13,0,0,0-.13-.09h-4.8a.12.12,0,0,0-.13.09l-.57,1.89a.32.32,0,0,1-.33.24h-1.67c-.2,0-.29-.13-.24-.33l3.93-12.26a.31.31,0,0,1,.33-.24h2.14a.31.31,0,0,1,.33.24l3.94,12.26a.23.23,0,0,1-.24.33h-1.66A.31.31,0,0,1,170.91,49.66Zm-5-3.65h3.74c.07,0,.11,0,.09-.12l-1.89-6.24c0-.09-.11-.09-.15,0l-1.88,6.24C165.83,46,165.86,46,165.94,46Z"/><path class="cls-1" d="M189,49.68l-2.4-5.24a.12.12,0,0,0-.13-.08h-2.14a.1.1,0,0,0-.11.11v5.14a.27.27,0,0,1-.3.29h-1.54a.27.27,0,0,1-.29-.29V37.34a.27.27,0,0,1,.29-.29h5a3.57,3.57,0,0,1,3.8,3.74,3.32,3.32,0,0,1-2.44,3.37.1.1,0,0,0-.06.15l2.53,5.24c.09.2,0,.35-.22.35h-1.61A.33.33,0,0,1,189,49.68ZM184.18,39V42.6c0,.08,0,.11.11.11H187a1.83,1.83,0,0,0,2-1.88,1.86,1.86,0,0,0-2-1.95h-2.73A.1.1,0,0,0,184.18,39Z"/><path class="cls-1" d="M208.37,49.66l-.56-1.89a.13.13,0,0,0-.13-.09h-4.81a.11.11,0,0,0-.12.09l-.57,1.89a.32.32,0,0,1-.33.24h-1.67c-.2,0-.29-.13-.24-.33l3.92-12.26a.32.32,0,0,1,.33-.24h2.15a.32.32,0,0,1,.33.24l3.94,12.26c0,.2,0,.33-.24.33H208.7A.32.32,0,0,1,208.37,49.66Zm-5-3.65h3.74c.07,0,.11,0,.09-.12l-1.89-6.24c0-.09-.11-.09-.15,0l-1.89,6.24C203.3,46,203.33,46,203.41,46Z"/><path class="cls-1" d="M219.52,49.61V37.36a.27.27,0,0,1,.29-.29h1.47a.43.43,0,0,1,.37.2l5.13,8.4c.05.09.13.07.13,0V37.36a.27.27,0,0,1,.29-.29h1.54a.27.27,0,0,1,.29.29V49.61a.27.27,0,0,1-.29.29h-1.5a.42.42,0,0,1-.37-.2l-5.13-8.45c-.06-.09-.13-.07-.13,0l0,8.32a.26.26,0,0,1-.3.29h-1.52A.27.27,0,0,1,219.52,49.61Z"/><path class="cls-1" d="M60.86,49.5,11.53.17A.49.49,0,0,0,11.22,0c-.14,0-.24.14-.24.4V21.59L.55,11.16A.5.5,0,0,0,.23,11c-.14,0-.23.14-.23.41V60.25A.78.78,0,0,0,.78,61H49.64c.43,0,.54-.25.23-.55L39.44,50.05H60.63C61.06,50.05,61.16,49.8,60.86,49.5Zm-15,9.66h-44v-44L11,24.24v25a.78.78,0,0,0,.78.78h25Z"/></g></g></svg>