<svg xmlns="http://www.w3.org/2000/svg" viewBox="0 0 80 80.11"><defs><style>.cls-1{fill:#231f20;}</style></defs><g id="Layer_2" data-name="Layer 2"><g id="Layer_1-2" data-name="Layer 1"><path class="cls-1" d="M41.49,21.81v9.71h7.42C47.45,26.4,44.72,22.7,41.49,21.81Z"/><path class="cls-1" d="M49.59,34.51h-8.1V45.6h8.1a33.65,33.65,0,0,0,0-11.09Z"/><path class="cls-1" d="M38.51,58.31V48.59H31.09C32.55,53.71,35.28,57.42,38.51,58.31Z"/><path class="cls-1" d="M31.64,56.51A24,24,0,0,1,28,48.59h-4.4A18.56,18.56,0,0,0,31.64,56.51Z"/><path class="cls-1" d="M27.41,34.51h-5c-.12.37-.21.74-.31,1.11,0,.11-.06.22-.08.34-.07.3-.13.61-.18.91s-.1.57-.13.86-.06.45-.08.68c-.05.54-.09,1.09-.09,1.65s0,1.1.09,1.64c0,.23.05.46.08.69s.08.56.13.84a9.35,9.35,0,0,0,.18.92c0,.12.06.23.08.35.1.37.19.73.31,1.1h5a33.65,33.65,0,0,1,0-11.09Z"/><path class="cls-1" d="M30.4,34.51a33.65,33.65,0,0,0,0,11.09h8.11V34.51Z"/><path class="cls-1" d="M48.91,48.59H41.49v9.72C44.72,57.42,47.45,53.71,48.91,48.59Z"/><path class="cls-1" d="M31.09,31.52h7.42V21.81C35.28,22.7,32.55,26.4,31.09,31.52Z"/><path class="cls-1" d="M56.2,31.18c-.27-.49-.56-1-.87-1.43l0,0c-.33-.48-.68-.95-1-1.4h0a18.38,18.38,0,0,0-2.49-2.5l0,0c-.44-.36-.9-.7-1.37-1l-.09-.06a15.76,15.76,0,0,0-1.38-.83l-.18-.11-.36-.17A23.8,23.8,0,0,1,52,31.52h4.41c0-.08-.07-.16-.11-.23Z"/><path class="cls-1" d="M48.73,56.34l.16-.09c.48-.27,1-.55,1.4-.86l.07,0a17.18,17.18,0,0,0,1.38-1h0A18.6,18.6,0,0,0,55.3,50.4l0,0a16.46,16.46,0,0,0,.88-1.45l.06-.09.11-.24H52a23.8,23.8,0,0,1-3.6,7.92Z"/><path class="cls-1" d="M23.63,31.52H28a24,24,0,0,1,3.61-7.92A18.56,18.56,0,0,0,23.63,31.52Z"/><path class="cls-1" d="M76.87,24.5a40.86,40.86,0,0,0-8.55-12.76A39.8,39.8,0,0,0,55.61,3.13,39.11,39.11,0,0,0,40,0,39.07,39.07,0,0,0,24.39,3.13a39.69,39.69,0,0,0-12.71,8.61A40.86,40.86,0,0,0,3.13,24.5,39.11,39.11,0,0,0,0,40.11,39.16,39.16,0,0,0,3.13,55.73,39.91,39.91,0,0,0,24.39,77,39.07,39.07,0,0,0,40,80.11,39.11,39.11,0,0,0,55.61,77,39.91,39.91,0,0,0,76.87,55.73,39.33,39.33,0,0,0,80,40.11,39.28,39.28,0,0,0,76.87,24.5ZM61.36,42.08c0,.4-.1.8-.16,1.19,0,.24-.07.48-.11.72-.1.54-.23,1.06-.37,1.58a2,2,0,0,1-.07.26c-.16.58-.35,1.15-.56,1.71,0,0,0,.06,0,.08v0a21.44,21.44,0,0,1-40.11,0s0,0,0-.05a2.5,2.5,0,0,1-.09-.25c-.17-.48-.34-1-.48-1.47l-.12-.5c-.12-.45-.24-.91-.32-1.37-.06-.29-.09-.59-.14-.88s-.11-.7-.14-1.06a18.88,18.88,0,0,1,0-4.07c0-.36.09-.72.15-1.07s.07-.58.13-.86c.09-.48.2-1,.33-1.43,0-.14.07-.29.11-.44.15-.52.32-1,.51-1.55l.06-.18,0,0a21.43,21.43,0,0,1,40.1,0l0,0a.56.56,0,0,0,0,.12q.3.81.54,1.65c0,.11.05.21.08.32q.21.75.36,1.53c0,.25.07.51.11.76s.13.77.16,1.16a18.69,18.69,0,0,1,0,4Z"/><path class="cls-1" d="M58.31,37.71q0-.41-.12-.81c-.06-.32-.12-.64-.19-1l-.06-.21c-.1-.41-.21-.81-.33-1.21h-5a34.39,34.39,0,0,1,0,11.09h5c.13-.41.24-.83.34-1.25,0-.05,0-.11,0-.16.07-.33.13-.66.19-1s.09-.52.12-.79l.09-.71c0-.55.08-1.09.08-1.64s0-1.1-.08-1.64Z"/></g></g></svg>