<svg xmlns="http://www.w3.org/2000/svg" viewBox="0 0 80 79.89"><defs><style>.cls-1{fill:#231f20;}</style></defs><g id="Layer_2" data-name="Layer 2"><g id="Layer_1-2" data-name="Layer 1"><path class="cls-1" d="M40.06,0A39,39,0,0,1,55.65,3.13,39.92,39.92,0,0,1,76.87,24.35,39,39,0,0,1,80,39.94a39,39,0,0,1-3.13,15.59A39.89,39.89,0,0,1,55.65,76.76a39.22,39.22,0,0,1-15.59,3.13,39.15,39.15,0,0,1-15.59-3.13,40.79,40.79,0,0,1-12.75-8.54A39.55,39.55,0,0,1,3.13,55.53,39,39,0,0,1,0,39.94,39,39,0,0,1,3.13,24.35a39.61,39.61,0,0,1,8.59-12.68A40.79,40.79,0,0,1,24.47,3.13,39,39,0,0,1,40.06,0ZM61.68,28.45a18.32,18.32,0,0,1-2.28.74c-.76.19-1.55.36-2.39.51a8.5,8.5,0,0,0,2.16-1.93,10.37,10.37,0,0,0,1.48-2.51c-.83.38-1.69.76-2.56,1.14a11.14,11.14,0,0,1-2.78.8,7,7,0,0,0-2.51-1.94,8.14,8.14,0,0,0-11.38,7.51,10,10,0,0,0,.23,1.83,21.86,21.86,0,0,1-9.39-2.51,24.13,24.13,0,0,1-7.34-6,8.68,8.68,0,0,0-1,4.1,7.3,7.3,0,0,0,3.53,6.71A7.22,7.22,0,0,1,23.78,36v.12a7.92,7.92,0,0,0,1.82,5.17A7.82,7.82,0,0,0,30.16,44a7.26,7.26,0,0,1-1,.17,10.43,10.43,0,0,1-1.2.06A6.3,6.3,0,0,1,26.63,44a7.53,7.53,0,0,0,2.73,4,8,8,0,0,0,4.78,1.71,15.68,15.68,0,0,1-10,3.42H22.19a22.94,22.94,0,0,0,12.4,3.64,22.32,22.32,0,0,0,17.13-7.51,22.69,22.69,0,0,0,4.38-7.4,23.89,23.89,0,0,0,1.48-8.2v-1a16.85,16.85,0,0,0,2.28-2A19.45,19.45,0,0,0,61.68,28.45Z"/></g></g></svg>