<svg xmlns="http://www.w3.org/2000/svg" viewBox="0 0 80 80.11"><defs><style>.cls-1{fill:#231f20;}</style></defs><g id="Layer_2" data-name="Layer 2"><g id="Layer_1-2" data-name="Layer 1"><path class="cls-1" d="M40,80.11A39.07,39.07,0,0,1,24.39,77,39.91,39.91,0,0,1,3.13,55.73,39.16,39.16,0,0,1,0,40.11,39.11,39.11,0,0,1,3.13,24.5a40.86,40.86,0,0,1,8.55-12.76A39.69,39.69,0,0,1,24.39,3.13,39.07,39.07,0,0,1,40,0,39.11,39.11,0,0,1,55.61,3.13a39.8,39.8,0,0,1,12.71,8.61A41,41,0,0,1,76.87,24.5,39.28,39.28,0,0,1,80,40.11a39.33,39.33,0,0,1-3.13,15.62A39.91,39.91,0,0,1,55.61,77,39.11,39.11,0,0,1,40,80.11ZM29.63,41.48h5.92v18H43v-18h7.41V34.07H43V30.31a2.73,2.73,0,0,1,.46-1.59,1.25,1.25,0,0,1,1-.69h5.93V20.74H44.44a8.2,8.2,0,0,0-6.26,2.85,9.75,9.75,0,0,0-2.63,6.84v3.64H29.63Z"/></g></g></svg>