<svg xmlns="http://www.w3.org/2000/svg" viewBox="0 0 80 80"><defs><style>.cls-1{fill:#231f20;}</style></defs><g id="Layer_2" data-name="Layer 2"><g id="Layer_1-2" data-name="Layer 1"><path class="cls-1" d="M39.94,80a39,39,0,0,1-15.59-3.13,39.93,39.93,0,0,1-12.69-8.59A40.76,40.76,0,0,1,3.13,55.53,39,39,0,0,1,0,39.94,39,39,0,0,1,3.13,24.35,39.74,39.74,0,0,1,24.35,3.13,39,39,0,0,1,39.94,0,39,39,0,0,1,55.53,3.13a40.93,40.93,0,0,1,12.75,8.53,39.93,39.93,0,0,1,8.59,12.69A39,39,0,0,1,80,39.94a39,39,0,0,1-3.13,15.59A40.17,40.17,0,0,1,55.53,76.87,39,39,0,0,1,39.94,80ZM28.68,21.3a4.08,4.08,0,0,0-3.08,1.31,4.37,4.37,0,0,0-1.25,3.13,4.33,4.33,0,1,0,8.65,0,4.37,4.37,0,0,0-1.25-3.13A4.07,4.07,0,0,0,28.68,21.3ZM32.2,32.68H25.15V57.14H32.2Zm3.42,24.46h7.05V41.44a5.9,5.9,0,0,1,1.83-1.25,6.38,6.38,0,0,1,1.82-.46,3.4,3.4,0,0,1,2,.46,2.66,2.66,0,0,1,1.26,2.05v14.9h6.94V42.24a9.28,9.28,0,0,0-1.31-4.67A9.49,9.49,0,0,0,51.78,34a10.6,10.6,0,0,0-4.5-1.14,9.35,9.35,0,0,0-4.61.91V32.68H35.62Z"/></g></g></svg>