<svg xmlns="http://www.w3.org/2000/svg" viewBox="0 0 80 80.11"><defs><style>.cls-1{fill:#231f20;}</style></defs><g id="Layer_2" data-name="Layer 2"><g id="Layer_1-2" data-name="Layer 1"><circle class="cls-1" cx="40" cy="40.06" r="6.15"/><path class="cls-1" d="M47.86,24.52H32.14a7.68,7.68,0,0,0-7.68,7.67V47.92a7.67,7.67,0,0,0,7.68,7.67H47.86a7.67,7.67,0,0,0,7.68-7.67V32.19A7.68,7.68,0,0,0,47.86,24.52ZM40,50.12A10.06,10.06,0,1,1,50.06,40.06,10.07,10.07,0,0,1,40,50.12ZM50.08,32.48a2.41,2.41,0,1,1,2.41-2.41A2.41,2.41,0,0,1,50.08,32.48Z"/><path class="cls-1" d="M76.87,24.5a41,41,0,0,0-8.55-12.76A39.8,39.8,0,0,0,55.61,3.13,39.11,39.11,0,0,0,40,0,39.07,39.07,0,0,0,24.39,3.13a39.69,39.69,0,0,0-12.71,8.61A40.86,40.86,0,0,0,3.13,24.5,39.11,39.11,0,0,0,0,40.11,39.16,39.16,0,0,0,3.13,55.73,39.91,39.91,0,0,0,24.39,77,39.07,39.07,0,0,0,40,80.11,39.11,39.11,0,0,0,55.61,77,39.91,39.91,0,0,0,76.87,55.73,39.33,39.33,0,0,0,80,40.11,39.28,39.28,0,0,0,76.87,24.5ZM59.45,47.92A11.6,11.6,0,0,1,47.86,59.51H32.14A11.6,11.6,0,0,1,20.55,47.92V32.19A11.6,11.6,0,0,1,32.14,20.61H47.86A11.6,11.6,0,0,1,59.45,32.19Z"/></g></g></svg>